<?xml version="1.0" encoding="UTF-8"?>
<svg width="80px" height="59px" viewBox="0 0 80 59" version="1.1" xmlns="http://www.w3.org/2000/svg" xmlns:xlink="http://www.w3.org/1999/xlink">
    <!-- Generator: Sketch 52.6 (67491) - http://www.bohemiancoding.com/sketch -->
    <title>Group</title>
    <desc>Created with Sketch.</desc>
    <g id="Page-1" stroke="none" stroke-width="1" fill="none" fill-rule="evenodd">
        <g id="Minimal-Weather-App-Screens" transform="translate(-557.000000, -402.000000)" stroke="#FFFFFF" stroke-width="3">
            <g id="Object" transform="translate(132.000000, 31.000000)">
                <g id="Group">
                    <g transform="translate(394.000000, 287.000000)" id="Path">
                        <g transform="translate(32.000000, 85.000000)">
                            <path d="M67,31.6 C66.4,19.4 56.3,9.6 44,9.6 C34.4,9.6 26.2,15.4 22.7,23.7 C21.5,23.1 20.2,22.7 18.7,22.7 C13.9,22.7 10,26.6 10,31.4 C10,31.5 10,31.6 10,31.7 C4.7,33 0.7,37.8 0.7,43.5 C0.7,50.2 6.1,55.7 12.9,55.7 C18.9,55.7 61.7,55.7 65.1,55.7 C71.8,55.7 77.3,50.3 77.3,43.5 C77.3,37.5 72.8,32.5 67,31.6 Z"></path>
                            <path d="M6.6,33.2 C7.6,32.6 8.8,32.1 10,31.8 C10,31.7 10,31.6 10,31.5 C10,26.7 13.9,22.8 18.7,22.8 C20.1,22.8 21.5,23.2 22.7,23.8 C25.2,17.9 30.1,13.2 36.2,11 C33.1,4.9 26.8,0.7 19.4,0.7 C9,0.7 0.6,9.1 0.6,19.5 C0.7,24.9 2.9,29.8 6.6,33.2 Z"></path>
                        </g>
                    </g>
                </g>
            </g>
        </g>
    </g>
</svg>