<?xml version="1.0" encoding="UTF-8"?>
<svg width="80px" height="79px" viewBox="0 0 80 79" version="1.1" xmlns="http://www.w3.org/2000/svg" xmlns:xlink="http://www.w3.org/1999/xlink">
    <!-- Generator: Sketch 52.6 (67491) - http://www.bohemiancoding.com/sketch -->
    <title>Group</title>
    <desc>Created with Sketch.</desc>
    <g id="Page-1" stroke="none" stroke-width="1" fill="none" fill-rule="evenodd">
        <g id="Minimal-Weather-App-Screens" transform="translate(-163.000000, -391.000000)" stroke="#FFFFFF" stroke-width="3">
            <g id="Object" transform="translate(132.000000, 31.000000)">
                <g id="Group">
                    <g transform="translate(0.000000, 287.000000)" id="Path">
                        <g transform="translate(32.000000, 75.000000)">
                            <path d="M67.1,22 C66.5,9.8 56.4,0 44.1,0 C34.5,0 26.3,5.8 22.8,14.1 C21.6,13.5 20.3,13.1 18.8,13.1 C14,13.1 10.1,17 10.1,21.8 C10.1,21.9 10.1,22 10.1,22.1 C4.8,23.4 0.8,28.2 0.8,33.9 C0.8,40.6 6.2,46.1 13,46.1 C19,46.1 61.8,46.1 65.2,46.1 C71.9,46.1 77.4,40.7 77.4,33.9 C77.3,27.9 72.9,22.9 67.1,22 Z"></path>
                            <g transform="translate(12.000000, 50.000000)">
                                <g>
                                    <path d="M9.4,0.6 L7.2,6.9"></path>
                                    <path d="M5.9,10.3 L3.6,16.5"></path>
                                    <path d="M2.4,20 L0.1,26.2"></path>
                                </g>
                                <g transform="translate(11.000000, 0.000000)">
                                    <path d="M9.6,0.6 L7.3,6.9"></path>
                                    <path d="M6.1,10.3 L3.8,16.5"></path>
                                    <path d="M2.6,20 L0.3,26.2"></path>
                                </g>
                                <g transform="translate(22.000000, 0.000000)">
                                    <path d="M9.8,0.6 L7.5,6.9"></path>
                                    <path d="M6.2,10.3 L4,16.5"></path>
                                    <path d="M2.7,20 L0.4,26.2"></path>
                                </g>
                                <g transform="translate(33.000000, 0.000000)">
                                    <path d="M9.9,0.6 L7.7,6.9"></path>
                                    <path d="M6.4,10.3 L4.1,16.5"></path>
                                    <path d="M2.9,20 L0.6,26.2"></path>
                                </g>
                                <g transform="translate(44.000000, 0.000000)">
                                    <path d="M10.1,0.6 L7.8,6.9"></path>
                                    <path d="M6.6,10.3 L4.3,16.5"></path>
                                    <path d="M3.1,20 L0.8,26.2"></path>
                                </g>
                            </g>
                        </g>
                    </g>
                </g>
            </g>
        </g>
    </g>
</svg>